<svg width="32" height="32" viewBox="0 0 32 32" fill="none" xmlns="http://www.w3.org/2000/svg">
<path d="M16 32C7.17955 32 0 24.8205 0 16C0 7.17463 7.17955 0 16 0C24.8205 0 32 7.17955 32 16C32 24.8205 24.8254 32 16 32ZM16 1.11857C7.7955 1.11857 1.11857 7.79551 1.11857 16.0049C1.11857 24.2094 7.7955 30.8864 16 30.8864C24.2045 30.8864 30.8814 24.2094 30.8814 16.0049C30.8864 7.79059 24.2094 1.11857 16 1.11857Z" fill="white"/>
<path fill-rule="evenodd" clip-rule="evenodd" d="M20.0016 16.0099H17.385V25.3428H13.507V16.0099H11.6641V12.7133H13.507V10.5796C13.507 9.05207 14.2314 6.66216 17.4245 6.66216L20.3022 6.67203V9.87499H18.2129C17.8729 9.87499 17.39 10.0425 17.39 10.7718V12.7084H20.3465L20.0016 16.0099Z" fill="white"/>
</svg>
