<svg width="32" height="32" viewBox="0 0 32 32" fill="none" xmlns="http://www.w3.org/2000/svg">
<path d="M16 32C7.17955 32 0 24.8205 0 16C0 7.17463 7.17955 0 16 0C24.8205 0 32 7.17955 32 16C32 24.8205 24.8205 32 16 32ZM16 1.11857C7.79551 1.11857 1.11857 7.79551 1.11857 16.0049C1.11857 24.2094 7.79551 30.8864 16 30.8864C24.2045 30.8864 30.8814 24.2094 30.8814 16.0049C30.8814 7.79059 24.2045 1.11857 16 1.11857Z" fill="white"/>
<path d="M10.8078 8.79019L10.8069 8.79054C10.3496 8.96768 9.97186 9.19853 9.58798 9.58241C9.2041 9.96629 8.97325 10.344 8.79611 10.8013L8.79576 10.8022C8.62136 11.2506 8.49292 11.7752 8.45675 12.5887L10.8078 8.79019ZM10.8078 8.79019C11.2563 8.61577 11.7808 8.4873 12.5945 8.45114C13.4649 8.41246 13.7378 8.40262 16.0007 8.40262C18.2635 8.40262 18.5364 8.41246 19.4069 8.45114C20.2205 8.4873 20.7451 8.61577 21.1936 8.79019L21.1945 8.79054C21.6518 8.96768 22.0295 9.19853 22.4134 9.58241C22.7973 9.96629 23.0281 10.344 23.2052 10.8013L23.2056 10.8022C23.38 11.2507 23.5084 11.7753 23.5446 12.5889C23.5833 13.4594 23.5931 13.7322 23.5931 15.9951C23.5931 18.2578 23.5833 18.5259 23.5446 19.4014C23.5084 20.215 23.38 20.7396 23.2056 21.188L23.2052 21.1889C23.0281 21.6462 22.7973 22.0239 22.4134 22.4078C22.0295 22.7917 21.6518 23.0225 21.1945 23.1997L21.1936 23.2C20.7451 23.3744 20.2205 23.5029 19.4069 23.539C18.5364 23.5777 18.2635 23.5876 16.0007 23.5876C13.7379 23.5876 13.4698 23.5777 12.5943 23.539C11.7807 23.5029 11.2562 23.3744 10.8078 23.2L10.8069 23.1997C10.3496 23.0225 9.97186 22.7917 9.58798 22.4078C9.2041 22.0239 8.97325 21.6462 8.79611 21.1889L8.79576 21.188M10.8078 8.79019L8.79576 21.188M8.79576 21.188C8.62135 20.7395 8.49291 20.2149 8.45674 19.4013C8.41806 18.5308 8.4082 18.2579 8.4082 15.9951C8.4082 13.7325 8.41805 13.4643 8.45674 12.5889L8.79576 21.188Z" stroke="white" stroke-width="1.5"/>
<path d="M15.9999 11.713C13.6347 11.713 11.7129 13.6299 11.7129 16.0001C11.7129 18.3702 13.6297 20.2871 15.9999 20.2871C18.3701 20.2871 20.287 18.3702 20.287 16.0001C20.287 13.6299 18.3652 11.713 15.9999 11.713ZM15.9999 18.7842C14.4625 18.7842 13.2158 17.5375 13.2158 16.0001C13.2158 14.4626 14.4625 13.2159 15.9999 13.2159C17.5374 13.2159 18.784 14.4626 18.784 16.0001C18.784 17.5375 17.5374 18.7842 15.9999 18.7842Z" fill="white"/>
<path d="M20.4554 12.5458C21.0078 12.5458 21.4557 12.0979 21.4557 11.5455C21.4557 10.993 21.0078 10.5452 20.4554 10.5452C19.9029 10.5452 19.4551 10.993 19.4551 11.5455C19.4551 12.0979 19.9029 12.5458 20.4554 12.5458Z" fill="white"/>
</svg>
