<svg width="32" height="32" viewBox="0 0 32 32" fill="none" xmlns="http://www.w3.org/2000/svg">
<path d="M16 32C7.17957 32 0 24.8205 0 16C0 7.17463 7.17957 0 16 0C24.8205 0 32 7.17955 32 16C32 24.8205 24.8254 32 16 32ZM16 1.11857C7.79552 1.11857 1.11858 7.79551 1.11858 16.0049C1.11858 24.2094 7.79552 30.8864 16 30.8864C24.2045 30.8864 30.8814 24.2094 30.8814 16.0049C30.8864 7.79059 24.2094 1.11857 16 1.11857Z" fill="white"/>
<path d="M22.2442 7.8448H9.75762C8.70311 7.8448 7.8457 8.70221 7.8457 9.75672V22.2433C7.8457 23.2978 8.70311 24.1552 9.75762 24.1552H22.2442C23.2988 24.1552 24.1562 23.2978 24.1562 22.2433V9.75672C24.1562 8.70221 23.2988 7.8448 22.2442 7.8448ZM12.9458 21.3169H10.7185V14.1177H12.9458V21.3169ZM11.8617 13.1321C11.1374 13.1321 10.5559 12.5458 10.5559 11.8263C10.5559 11.1069 11.1374 10.5205 11.8617 10.5205C12.5812 10.5205 13.1676 11.1069 13.1676 11.8263C13.1676 12.5507 12.5812 13.1321 11.8617 13.1321ZM21.2883 21.3169H19.0906V17.8035C19.0906 16.9707 19.0511 15.9015 17.9079 15.9015C16.7499 15.9015 16.5085 16.8081 16.5085 17.7444V21.3169H14.3403V14.1177H16.5085V15.0983C16.8041 14.5365 17.5334 13.9895 18.6175 13.9895C20.8744 13.9895 21.2834 15.4235 21.2834 17.3551V21.3169H21.2883Z" fill="white"/>
</svg>
