<svg width="32" height="32" viewBox="0 0 32 32" fill="none" xmlns="http://www.w3.org/2000/svg">
<path d="M16 32C7.17955 32 0 24.8205 0 16C0 7.17463 7.17955 0 16 0C24.8205 0 32 7.17955 32 16C32 24.8205 24.8205 32 16 32ZM16 1.11857C7.79551 1.11857 1.11857 7.79551 1.11857 16.0049C1.11857 24.2094 7.79551 30.8864 16 30.8864C24.2045 30.8864 30.8814 24.2094 30.8814 16.0049C30.8814 7.79059 24.2045 1.11857 16 1.11857Z" fill="white"/>
<path d="M7.26758 22.3221C9.30762 22.4897 11.1505 21.9821 12.7767 20.7305C11.9833 20.6763 11.2639 20.4349 10.6282 19.9569C9.99256 19.4789 9.54909 18.8629 9.29286 18.1041C9.57866 18.1139 9.84967 18.1435 10.1158 18.1337C10.3819 18.1238 10.6479 18.0794 10.919 18.0302C9.06618 17.4536 8.06588 16.2217 7.93776 14.2655C8.23342 14.3788 8.49458 14.497 8.7656 14.571C9.03662 14.6449 9.31749 14.6745 9.59837 14.709C7.93776 13.3046 7.56324 11.6292 8.46992 9.6335C10.5445 12.0677 13.1364 13.3982 16.3049 13.615C16.2802 13.344 16.2457 13.1025 16.2359 12.8562C16.2014 11.9495 16.4576 11.1315 17.0243 10.4219C17.9802 9.22942 19.2368 8.77609 20.7348 9.01755C21.331 9.1161 21.8731 9.3674 22.3461 9.75176C22.4398 9.82567 22.5432 9.88974 22.6122 9.97844C22.7256 10.1213 22.8438 10.1361 23.0114 10.0967C23.6815 9.92916 24.332 9.70249 24.9381 9.36249C25.0071 9.32307 25.076 9.2935 25.1746 9.2393C25.0465 9.69757 24.8247 10.072 24.5537 10.412C24.2876 10.7521 23.9624 11.0379 23.6027 11.2842C24.3172 11.23 24.9873 11.0231 25.6674 10.7767C25.5047 10.9886 25.3471 11.2054 25.1795 11.4074C24.8001 11.8558 24.3763 12.255 23.9082 12.6147C23.854 12.6541 23.8146 12.7527 23.8146 12.8266C23.8491 13.9205 23.7111 14.9898 23.4204 16.0443C23.2134 16.7983 22.9227 17.5276 22.563 18.2273C22.2082 18.9073 21.7992 19.5479 21.3113 20.1392C20.7249 20.8537 20.0646 21.4894 19.3107 22.0314C18.6356 22.5143 17.9113 22.9134 17.1426 23.2239C16.3788 23.5294 15.5903 23.7314 14.7822 23.8596C13.9396 23.9926 13.0921 24.0123 12.2445 23.9581C11.323 23.899 10.4163 23.7314 9.54907 23.4062C8.97254 23.1894 8.41572 22.9282 7.8589 22.672C7.65687 22.5734 7.46468 22.4404 7.26758 22.3221Z" fill="white"/>
</svg>
