<svg width="32" height="32" viewBox="0 0 32 32" fill="none" xmlns="http://www.w3.org/2000/svg">
<path d="M16 32C7.17954 32 0 24.8205 0 16C0 7.17466 7.17954 3.05176e-05 16 3.05176e-05C24.8204 3.05176e-05 32 7.17958 32 16C32 24.8205 24.8204 32 16 32ZM16 1.1186C7.79549 1.1186 1.11858 7.79554 1.11858 16.005C1.11858 24.2095 7.79549 30.8864 16 30.8864C24.2045 30.8864 30.8814 24.2095 30.8814 16.005C30.8814 7.79062 24.2045 1.1186 16 1.1186Z" fill="white"/>
<path d="M25.771 10.4663C25.1895 9.43643 24.5637 9.24426 23.2825 9.17527C22.0014 9.08657 18.7885 9.05208 15.9995 9.05208C13.2105 9.05208 9.99273 9.08657 8.71155 9.17527C7.43529 9.24918 6.80456 9.43643 6.21817 10.4663C5.62193 11.4962 5.31641 13.2701 5.31641 16.3893V16.3942V16.3992V16.4041C5.31641 19.5134 5.62193 21.2972 6.21817 22.3172C6.80456 23.3471 7.43037 23.5343 8.71155 23.623C9.9878 23.697 13.2055 23.7413 15.9995 23.7413C18.7836 23.7413 22.0014 23.697 23.2825 23.623C24.5637 23.5343 25.1895 23.3471 25.771 22.3172C26.3722 21.2972 26.6777 19.5134 26.6777 16.4041V16.3992V16.3942C26.6777 13.2652 26.3771 11.4962 25.771 10.4663ZM19.4636 16.8919L14.0137 20.1589C13.6244 20.3905 13.1365 20.1146 13.1365 19.6612V13.1223C13.1365 12.6689 13.6293 12.393 14.0137 12.6246L19.4636 15.8916C19.8381 16.1183 19.8381 16.6652 19.4636 16.8919Z" fill="white"/>
</svg>
