<svg width="154" height="48" viewBox="0 0 154 48" fill="none" xmlns="http://www.w3.org/2000/svg">
<g clip-path="url(#clip0_1640_7827)">
<path d="M7.84668 0H1.35945C0.608648 0 0 0.612474 0 1.368V6.912C0 7.66752 0.608648 8.28 1.35945 8.28H7.84668C8.59748 8.28 9.20613 7.66752 9.20613 6.912V1.368C9.20613 0.612474 8.59748 0 7.84668 0Z" fill="#DA0081"/>
<path d="M47.3654 0H41.7845C41.0213 0 40.425 0.624 40.425 1.368V23.808C40.425 24.264 39.8288 24.432 39.6141 24.024L26.6397 0.6C26.425 0.216 26.0434 0 25.5903 0H16.3126C15.5494 0 14.9531 0.624 14.9531 1.368V37.224C14.9531 37.992 15.5732 38.592 16.3126 38.592H21.8935C22.6567 38.592 23.253 37.968 23.253 37.224V14.112C23.253 13.656 23.8492 13.488 24.0639 13.896L37.3961 38.016C37.6107 38.4 37.9923 38.616 38.4455 38.616H47.3177C48.0809 38.616 48.6771 37.992 48.6771 37.248V1.368C48.6771 0.6 48.057 0 47.3177 0H47.3654Z" fill="#ECE7F5"/>
<path d="M80.9242 24.6C80.9242 14.496 74.3892 9.48001 67.2104 9.48001C57.885 9.48001 52.5664 15.984 52.5664 24.768C52.5664 34.752 59.2444 39.504 66.9957 39.504C74.747 39.504 79.2785 35.472 80.4948 30.24C80.6618 29.568 80.2802 28.968 79.2785 28.968H74.8901C74.3892 28.968 73.9599 29.232 73.7453 29.736C72.6482 32.16 70.8833 33.432 67.4966 33.432C63.6567 33.432 61.0809 31.008 60.6993 26.088H79.5647C80.3756 26.088 80.9242 25.488 80.9242 24.6ZM61.0093 20.784C61.8202 17.16 63.919 15.552 67.0911 15.552C69.9293 15.552 72.362 17.208 72.6959 20.784H61.0093Z" fill="#ECE7F5"/>
<path d="M152.64 10.2H147.035C146.284 10.2 145.676 10.8125 145.676 11.568V37.248C145.676 38.0035 146.284 38.616 147.035 38.616H152.64C153.391 38.616 153.999 38.0035 153.999 37.248V11.568C153.999 10.8125 153.391 10.2 152.64 10.2Z" fill="#ECE7F5"/>
<path d="M111.023 10.2H105.442C104.679 10.2 104.082 10.824 104.082 11.568V12.96C102.413 10.992 99.6701 9.62399 96.0688 9.62399C88.0074 9.62399 83.7383 16.968 83.7383 24.744C83.7383 31.536 87.2442 39.144 95.9018 39.144C99.0023 39.144 102.294 37.656 104.082 35.544V46.584C104.082 47.352 104.702 47.952 105.442 47.952H111.023C111.786 47.952 112.382 47.328 112.382 46.584V11.592C112.382 10.824 111.762 10.224 111.023 10.224V10.2ZM98.3107 33.096C94.6378 33.096 92.062 30.384 92.062 24.552C92.062 18.72 94.6378 15.672 98.3107 15.672C101.984 15.672 104.559 18.48 104.559 24.552C104.559 30.624 101.984 33.096 98.3107 33.096Z" fill="#ECE7F5"/>
<path d="M140.74 10.2H135.159C134.395 10.2 133.799 10.824 133.799 11.568V26.088C133.799 30.768 131.724 32.136 129.077 32.136C126.429 32.136 124.355 30.768 124.355 26.088V11.568C124.355 10.8 123.734 10.2 122.995 10.2H117.414C116.651 10.2 116.055 10.824 116.055 11.568V26.688C116.055 35.688 120.992 39.312 129.101 39.312C137.21 39.312 142.147 35.664 142.147 26.688V11.568C142.147 10.8 141.527 10.2 140.787 10.2H140.74Z" fill="#ECE7F5"/>
</g>
<defs>
<clipPath id="clip0_1640_7827">
<rect width="154" height="48" fill="white"/>
</clipPath>
</defs>
</svg>
