<svg width="136" height="40" viewBox="0 0 136 40" fill="none" xmlns="http://www.w3.org/2000/svg">
<g clip-path="url(#clip0_1640_7836)">
<path d="M130.5 -0.0242882H5.5C2.75 -0.0242882 0.5 2.22708 0.5 4.97875V34.997C0.5 37.7486 2.75 40 5.5 40H130.5C133.25 40 135.5 37.7486 135.5 34.997V4.97875C135.5 2.22708 133.25 -0.0242882 130.5 -0.0242882ZM130.5 0.776196C132.816 0.776196 134.7 2.66174 134.7 4.97875V34.997C134.7 37.3144 132.816 39.1999 130.5 39.1999H5.5C3.1844 39.1999 1.3 37.3144 1.3 34.997V4.97875C1.3 2.66174 3.1844 0.776196 5.5 0.776196H130.5Z" fill="white"/>
<path d="M107.437 30H109.303V17.4988H107.437V30ZM124.244 22.002L122.105 27.4219H122.041L119.821 22.002H117.811L121.14 29.5773L119.242 33.791H121.189L126.319 22.002H124.244ZM113.662 28.5801C113.05 28.5801 112.198 28.2746 112.198 27.5184C112.198 26.5535 113.26 26.1836 114.176 26.1836C114.997 26.1836 115.382 26.3605 115.881 26.602C115.736 27.7598 114.739 28.5801 113.662 28.5801ZM113.887 21.7285C112.536 21.7285 111.137 22.3238 110.558 23.6426L112.214 24.334C112.568 23.6426 113.227 23.4172 113.919 23.4172C114.884 23.4172 115.865 23.9965 115.881 25.0258V25.1543C115.543 24.9613 114.82 24.6719 113.935 24.6719C112.15 24.6719 110.332 25.6527 110.332 27.4863C110.332 29.159 111.796 30.2367 113.436 30.2367C114.691 30.2367 115.382 29.6738 115.817 29.0145H115.881V29.9793H117.682V25.1863C117.682 22.9672 116.026 21.7285 113.887 21.7285ZM102.355 23.5238H99.7012V19.2387H102.355C103.75 19.2387 104.542 20.3937 104.542 21.3812C104.542 22.35 103.75 23.5238 102.355 23.5238ZM102.307 17.4988H97.8362V30H99.7012V25.2637H102.307C104.375 25.2637 106.408 23.7664 106.408 21.3812C106.408 18.9961 104.375 17.4988 102.307 17.4988ZM77.9262 28.5824C76.6371 28.5824 75.5578 27.5031 75.5578 26.0207C75.5578 24.5227 76.6371 23.427 77.9262 23.427C79.1989 23.427 80.1977 24.5227 80.1977 26.0207C80.1977 27.5031 79.1989 28.5824 77.9262 28.5824ZM80.0688 22.702H80.0043C79.5856 22.2027 78.7797 21.7516 77.7649 21.7516C75.6383 21.7516 73.6891 23.6203 73.6891 26.0207C73.6891 28.4051 75.6383 30.2578 77.7649 30.2578C78.7797 30.2578 79.5856 29.8066 80.0043 29.2914H80.0688V29.9035C80.0688 31.5309 79.1989 32.4008 77.7973 32.4008C76.6535 32.4008 75.9446 31.5789 75.6543 30.8863L74.0274 31.5629C74.4946 32.6906 75.7352 34.0762 77.7973 34.0762C79.9883 34.0762 81.841 32.7871 81.841 29.6457V22.0094H80.0688V22.702ZM83.1297 30H84.9985V17.4984H83.1297V30ZM87.7535 25.8758C87.7051 24.2324 89.0262 23.3949 89.9766 23.3949C90.7182 23.3949 91.3462 23.7652 91.5552 24.2973L87.7535 25.8758ZM93.5532 24.4582C93.1992 23.5074 92.1192 21.7516 89.9121 21.7516C87.7211 21.7516 85.9008 23.4754 85.9008 26.0047C85.9008 28.3891 87.7051 30.2578 90.1215 30.2578C92.0712 30.2578 93.1992 29.0656 93.6662 28.373L92.2162 27.4062C91.7332 28.1152 91.0722 28.5824 90.1215 28.5824C89.1711 28.5824 88.4946 28.1473 88.0594 27.2937L93.7462 24.9414L93.5532 24.4582ZM48.245 23.0566V24.8609H52.5625C52.4336 25.8758 52.0953 26.6168 51.5797 27.1324C50.9516 27.7609 49.9688 28.4535 48.245 28.4535C45.5867 28.4535 43.5086 26.3109 43.5086 23.6527C43.5086 20.9945 45.5867 18.8516 48.245 18.8516C49.6789 18.8516 50.7258 19.4156 51.4992 20.1406L52.7719 18.868C51.6926 17.8367 50.2586 17.0473 48.245 17.0473C44.6039 17.0473 41.543 20.0117 41.543 23.6527C41.543 27.2937 44.6039 30.2578 48.245 30.2578C50.2106 30.2578 51.6926 29.6137 52.8524 28.4051C54.0446 27.2129 54.4153 25.5375 54.4153 24.1844C54.4153 23.7652 54.3832 23.3789 54.3184 23.0566H48.245ZM59.3239 28.5824C58.0348 28.5824 56.9231 27.5191 56.9231 26.0047C56.9231 24.4742 58.0348 23.427 59.3239 23.427C60.6125 23.427 61.7242 24.4742 61.7242 26.0047C61.7242 27.5191 60.6125 28.5824 59.3239 28.5824ZM59.3239 21.7516C56.9715 21.7516 55.0543 23.5398 55.0543 26.0047C55.0543 28.4535 56.9715 30.2578 59.3239 30.2578C61.6758 30.2578 63.593 28.4535 63.593 26.0047C63.593 23.5398 61.6758 21.7516 59.3239 21.7516ZM68.6371 28.5824C67.3485 28.5824 66.2367 27.5191 66.2367 26.0047C66.2367 24.4742 67.3485 23.427 68.6371 23.427C69.9258 23.427 71.0375 24.4742 71.0375 26.0047C71.0375 27.5191 69.9258 28.5824 68.6371 28.5824ZM68.6371 21.7516C66.2848 21.7516 64.368 23.5398 64.368 26.0047C64.368 28.4535 66.2848 30.2578 68.6371 30.2578C70.9891 30.2578 72.9063 28.4535 72.9063 26.0047C72.9063 23.5398 70.9891 21.7516 68.6371 21.7516Z" fill="white"/>
<path d="M11.0098 32.3896L10.9355 32.3185C10.6445 32.0106 10.4727 31.5325 10.4727 30.9134V31.0591V8.94315C10.4727 8.94115 10.4727 8.93965 10.4727 8.93805C10.4727 8.93995 10.4727 8.94155 10.4727 8.94355V9.08965C10.4727 8.41925 10.673 7.91425 11.0086 7.61145L23.3984 20.0009L11.0098 32.3896ZM10.4727 8.93685C10.4727 8.88175 10.4742 8.82825 10.477 8.77555C10.4742 8.82785 10.4727 8.88175 10.4727 8.93685ZM10.477 8.77315C10.477 8.77245 10.477 8.77165 10.4773 8.77085C10.477 8.77165 10.477 8.77245 10.477 8.77315ZM10.4773 8.76615C10.4773 8.76575 10.4773 8.76535 10.4773 8.76495C10.4773 8.76535 10.4773 8.76575 10.4773 8.76615Z" fill="url(#paint0_linear_1640_7836)"/>
<path d="M27.5277 24.2793L27.6219 24.2258L32.5148 21.4457C32.9813 21.1805 33.2922 20.859 33.4473 20.5188C33.2926 20.859 32.9816 21.1809 32.5148 21.4461L27.6219 24.2262L27.5277 24.2793ZM27.5289 24.1328L23.3984 20.0016L27.5285 15.8711L32.5148 18.7039C33.148 19.0637 33.5035 19.5274 33.5629 20.0012C33.5629 20.0016 33.5629 20.0024 33.5629 20.0031C33.5035 20.4758 33.148 20.9399 32.5148 21.2996L27.5289 24.1328Z" fill="url(#paint1_linear_1640_7836)"/>
<path d="M11.8926 32.8613C11.5465 32.8613 11.2445 32.7488 11.009 32.5363L11.0094 32.5359C11.2449 32.7484 11.5473 32.8613 11.8934 32.8613C11.9234 32.8613 11.9539 32.8605 11.9848 32.859C11.9535 32.8605 11.9226 32.8613 11.8926 32.8613ZM11.893 32.7148C11.5469 32.7152 11.2449 32.6023 11.0094 32.3898V32.3895L23.398 20.0008L27.5285 24.132L13.0133 32.3793C12.6117 32.607 12.2312 32.7148 11.893 32.7148ZM11.0059 32.5336C10.984 32.5137 10.9625 32.4926 10.9414 32.4707L11.0059 32.5336Z" fill="url(#paint2_linear_1640_7836)"/>
<path d="M23.3996 20.002L11.0098 7.61246C11.2453 7.40036 11.5469 7.28786 11.8926 7.28786C12.2317 7.28786 12.6125 7.39606 13.0149 7.62416L27.5297 15.8715L23.3996 20.002ZM27.6231 15.7782L13.0149 7.47815C12.6125 7.24995 12.2317 7.14176 11.8926 7.14176C11.891 7.14176 11.8899 7.14176 11.8883 7.14176C11.8903 7.14176 11.8918 7.14176 11.8942 7.14176C12.2325 7.14176 12.6129 7.24955 13.0149 7.47775L27.6231 15.7782Z" fill="url(#paint3_linear_1640_7836)"/>
<path d="M11.9872 32.8594C12.3016 32.8414 12.6497 32.7332 13.0157 32.5258L27.5297 24.2789L13.0157 32.5258C12.65 32.7336 12.3016 32.8414 11.9872 32.8594ZM11.0114 32.5367L11.0083 32.534C11.0094 32.5348 11.0106 32.5359 11.0114 32.5367ZM10.9438 32.4711L10.9375 32.4649V32.4645C10.9399 32.4668 10.9418 32.4691 10.9438 32.4711Z" fill="white"/>
<path d="M27.5273 24.2793L27.6216 24.2258L27.5273 24.2793Z" fill="url(#paint4_linear_1640_7836)"/>
<path d="M11.8958 32.8613C11.5497 32.8613 11.2473 32.7484 11.0118 32.5359L11.0114 32.5363C11.0106 32.5355 11.0094 32.5344 11.0083 32.5336L10.9438 32.4707C10.9418 32.4687 10.9399 32.4664 10.9375 32.4641L11.0118 32.3898C11.2473 32.6023 11.5493 32.7152 11.8954 32.7148C12.2336 32.7148 12.6141 32.607 13.0157 32.3793L27.5309 24.132L27.6239 24.225L27.5297 24.2785L13.0157 32.5254C12.6497 32.7328 12.3016 32.841 11.9872 32.859C11.9563 32.8605 11.9258 32.8613 11.8958 32.8613Z" fill="url(#paint5_linear_1640_7836)"/>
<path d="M10.9355 32.4639C10.6445 32.156 10.4727 31.6779 10.4727 31.0588V31.0584C10.4727 31.6779 10.6445 32.1556 10.9355 32.4635V32.4639Z" fill="white"/>
<path d="M10.9355 32.4639C10.6445 32.156 10.4727 31.6783 10.4727 31.0588V30.9131C10.4727 31.5322 10.6445 32.0103 10.9355 32.3182L11.0098 32.3893L10.9355 32.4639Z" fill="url(#paint6_linear_1640_7836)"/>
<path d="M10.9375 32.4639L11.0118 32.3893V32.3896L10.9375 32.4639Z" fill="url(#paint7_linear_1640_7836)"/>
<path d="M33.4473 20.5186C33.5242 20.3498 33.5629 20.1764 33.5629 20.0029C33.5629 20.0026 33.5629 20.0022 33.5629 20.0022C33.5629 20.176 33.5242 20.3494 33.4473 20.5186Z" fill="white"/>
<path d="M27.6223 24.2256L27.5293 24.1326L32.5152 21.2994C33.1484 20.9397 33.5039 20.4756 33.5633 20.0029C33.5633 20.1764 33.5246 20.3498 33.4477 20.5186C33.2926 20.8588 32.9817 21.1803 32.5152 21.4455L27.6223 24.2256Z" fill="url(#paint8_linear_1640_7836)"/>
<path d="M33.5625 20.001V20.0006C33.5621 19.4775 33.2125 18.9545 32.5144 18.5576L27.6215 15.7775H27.6211L27.6215 15.7772L32.5144 18.5572C33.2133 18.9541 33.5633 19.4779 33.5625 20.001Z" fill="#404040"/>
<path d="M33.5637 20C33.5043 19.5262 33.1488 19.0625 32.5156 18.7027L27.5293 15.8699L27.6223 15.7769H27.6227L32.5156 18.557C33.2137 18.9539 33.5633 19.4769 33.5637 20Z" fill="url(#paint9_linear_1640_7836)"/>
<path d="M10.4727 8.9375C10.4727 8.9371 10.4727 8.9367 10.4727 8.9363C10.4727 8.9367 10.4727 8.9371 10.4727 8.9375ZM10.477 8.775C10.477 8.7742 10.477 8.7734 10.477 8.7726C10.477 8.7734 10.477 8.7742 10.477 8.775ZM10.4773 8.7703C10.4773 8.7687 10.4773 8.7672 10.4773 8.7656C10.4773 8.7672 10.4773 8.7687 10.4773 8.7703ZM10.4773 8.7644C10.5352 7.7371 11.0938 7.1437 11.884 7.1402C11.5414 7.1422 11.243 7.2547 11.0094 7.4652V7.4648L11.0066 7.4676C10.982 7.4898 10.9586 7.5133 10.9355 7.5375C10.673 7.8152 10.5074 8.2312 10.4773 8.7644Z" fill="#404040"/>
<path d="M10.4727 9.08984V8.94374C10.4727 8.94174 10.4727 8.94014 10.4727 8.93824C10.4727 8.93784 10.4727 8.93745 10.4727 8.93705C10.4727 8.88195 10.4742 8.82804 10.477 8.77574C10.477 8.77494 10.477 8.77415 10.477 8.77335C10.477 8.77265 10.477 8.77184 10.4773 8.77104C10.4773 8.76944 10.4773 8.76795 10.4773 8.76635C10.4773 8.76595 10.4773 8.76555 10.4773 8.76515C10.5074 8.23195 10.673 7.81594 10.9355 7.53824L11.0086 7.61165C10.673 7.91445 10.4727 8.41944 10.4727 9.08984ZM11.0066 7.46834L11.0094 7.46555C11.0086 7.46675 11.0074 7.46754 11.0066 7.46834Z" fill="url(#paint10_linear_1640_7836)"/>
<path d="M27.5305 15.8711L13.0157 7.62379C12.6133 7.39569 12.2325 7.28749 11.8934 7.28749C11.5477 7.28749 11.2461 7.39999 11.0106 7.61209L10.9375 7.53869C10.9606 7.51449 10.984 7.49099 11.0086 7.46879C11.0094 7.46799 11.0106 7.46719 11.0114 7.46639C11.245 7.25589 11.5434 7.14339 11.886 7.14139C11.8868 7.14139 11.8879 7.14139 11.8891 7.14139C11.8907 7.14139 11.8918 7.14139 11.8934 7.14139C12.2325 7.14139 12.6133 7.24959 13.0157 7.47779L27.6239 15.7778L27.6235 15.7781L27.5305 15.8711Z" fill="url(#paint11_linear_1640_7836)"/>
<path d="M42.5496 12.2629H43.614C44.3062 12.2629 44.8551 12.0645 45.2605 11.6676C45.666 11.2711 45.8679 10.7148 45.8679 10C45.8679 9.2906 45.666 8.7363 45.2605 8.3363C44.8551 7.9375 44.3062 7.7371 43.614 7.7371H42.5496V12.2629ZM41.7793 13V7H43.614C44.5359 7 45.273 7.2777 45.8269 7.834C46.3797 8.3895 46.6558 9.1113 46.6558 10C46.6558 10.8883 46.3797 11.6105 45.8269 12.166C45.273 12.7223 44.5359 13 43.614 13H41.7793Z" fill="white"/>
<path d="M42.55 12.2635V12.3635H43.6144C44.325 12.3643 44.9051 12.1576 45.3308 11.7397C45.759 11.3213 45.9691 10.7334 45.9683 10.0006C45.9691 9.27328 45.759 8.68689 45.3312 8.26579C44.9051 7.84549 44.3254 7.63688 43.6144 7.63768H42.55H42.45V12.3635H42.55V12.2635H42.65V7.83768H43.6144C44.2883 7.83888 44.8062 8.03068 45.191 8.40838L45.1906 8.40798C45.5734 8.78688 45.7676 9.30918 45.7683 10.0006C45.7676 10.6975 45.5734 11.2217 45.191 11.5967C44.8062 11.9725 44.2887 12.1623 43.6144 12.1635H42.55V12.2635H42.65H42.55ZM41.7797 13.0006H41.8797V7.10058H43.6144C44.5168 7.10138 45.2222 7.36968 45.7566 7.90528C46.2894 8.44198 46.5555 9.13218 46.5562 10.0006C46.5555 10.8686 46.2894 11.5592 45.7562 12.0959C45.2222 12.6315 44.5168 12.8998 43.6144 12.9006H41.7797V13.0006H41.8797H41.7797V13.1006H43.6144C44.5558 13.1014 45.325 12.8143 45.898 12.2373C46.4707 11.6627 46.7574 10.9088 46.7562 10.0006C46.7574 9.09158 46.4707 8.33848 45.898 7.76428C45.325 7.18688 44.5558 6.89978 43.6144 6.90058H41.6797V13.1006H41.7797V13.0006Z" fill="white"/>
<path d="M47.7383 13V7H48.5086V13H47.7383Z" fill="white"/>
<path d="M47.7387 13.0006H47.8387V7.10059H48.409V12.9006H47.7387V13.0006H47.8387H47.7387V13.1006H48.509H48.609V6.90059H47.7387H47.6387V13.1006H47.7387V13.0006Z" fill="white"/>
<path d="M51.5754 13.1338C51.1398 13.1338 50.714 12.9916 50.298 12.7068C49.8808 12.4217 49.6086 12.0225 49.4805 11.508L50.1847 11.2232C50.2687 11.5529 50.4394 11.831 50.6996 12.0568C50.9601 12.283 51.2512 12.3963 51.5754 12.3963C51.9101 12.3963 52.1972 12.3084 52.4347 12.1326C52.6722 11.9568 52.7902 11.7178 52.7902 11.4158C52.7902 11.081 52.6722 10.8225 52.4347 10.6408C52.1972 10.4592 51.8215 10.2904 51.3078 10.1338C50.7765 9.96659 50.3742 9.74979 50.1008 9.48419C49.8273 9.21889 49.6894 8.87989 49.6894 8.46619C49.6894 8.03569 49.8605 7.66189 50.2012 7.34349C50.5422 7.02519 50.9863 6.86539 51.5336 6.86539C52.0422 6.86539 52.4555 6.99319 52.7734 7.24709C53.0922 7.50139 53.2988 7.77909 53.3937 8.08099L52.6906 8.37359C52.6398 8.18459 52.516 8.00799 52.3176 7.84589C52.1191 7.68459 51.8637 7.60329 51.55 7.60329C51.2543 7.60329 51.0012 7.68529 50.7922 7.85059C50.582 8.01539 50.4777 8.22049 50.4777 8.46619C50.4777 8.68959 50.5746 8.87829 50.7668 9.03179C50.9601 9.18529 51.2433 9.32399 51.6176 9.44669C51.9133 9.54199 52.1601 9.63379 52.3597 9.72319C52.5578 9.81229 52.759 9.93139 52.9621 10.0795C53.1664 10.2271 53.3195 10.4119 53.423 10.6326C53.5265 10.8533 53.5785 11.1088 53.5785 11.399C53.5785 11.6896 53.5187 11.9494 53.3984 12.1783C53.2785 12.408 53.1183 12.5893 52.9203 12.7232C52.7219 12.8572 52.509 12.9592 52.2797 13.0291C52.05 13.099 51.8156 13.1338 51.5754 13.1338Z" fill="white"/>
<path d="M51.5762 13.1344V13.0344C51.1629 13.034 50.7582 12.9004 50.3555 12.625C49.9578 12.3524 49.702 11.9781 49.5785 11.4848L49.4813 11.5086L49.5188 11.6016L50.223 11.3168L50.1855 11.2238L50.0887 11.2488C50.177 11.5969 50.3602 11.8949 50.6344 12.1328L50.6348 12.1332C50.9102 12.3727 51.2281 12.4977 51.5762 12.4969C51.9281 12.4973 52.2395 12.4031 52.4949 12.2137C52.7559 12.0227 52.893 11.7441 52.891 11.4164C52.893 11.0586 52.759 10.7613 52.4965 10.5621C52.2422 10.3684 51.8578 10.1977 51.3379 10.0387H51.3387C50.8168 9.87498 50.4285 9.66368 50.1711 9.41288C49.9176 9.16558 49.7914 8.85818 49.7902 8.46678C49.7914 8.06368 49.9465 7.72148 50.2703 7.41718C50.5918 7.11798 51.0063 6.96678 51.5344 6.96598C52.027 6.96638 52.4145 7.08868 52.7121 7.32578C53.0195 7.57148 53.2117 7.83318 53.2992 8.11128L53.3945 8.08158L53.3563 7.98908L52.6527 8.28198L52.6914 8.37418L52.7879 8.34838C52.7305 8.13398 52.5914 7.94018 52.3816 7.76908C52.1629 7.59058 51.8809 7.50348 51.5508 7.50388C51.2367 7.50348 50.9582 7.59258 50.7309 7.77268L50.7313 7.77228C50.5016 7.95078 50.377 8.19178 50.3785 8.46678C50.377 8.71988 50.4938 8.94378 50.7051 9.11058L50.7055 9.11088C50.9133 9.27538 51.2059 9.41718 51.5871 9.54218L51.5875 9.54258C51.8809 9.63668 52.125 9.72768 52.3191 9.81518H52.3195C52.5102 9.90078 52.7055 10.0164 52.9039 10.1609H52.9043C53.0953 10.2996 53.2367 10.4699 53.3332 10.6758C53.4297 10.8809 53.4793 11.1211 53.4793 11.3996C53.4789 11.677 53.4227 11.9191 53.3109 12.1328C53.1973 12.3488 53.0488 12.5164 52.8648 12.641C52.6746 12.7695 52.4711 12.8672 52.2512 12.934C52.0309 13.0012 51.8066 13.0344 51.5762 13.0344V13.1344V13.2344C51.8262 13.2344 52.0707 13.1981 52.3094 13.1254C52.5484 13.0527 52.7707 12.9461 52.977 12.807V12.8066C53.1891 12.6633 53.3609 12.4684 53.4879 12.2254C53.6164 11.9809 53.6793 11.7039 53.6793 11.3996C53.6793 11.0977 53.625 10.827 53.5145 10.5906C53.4039 10.3551 53.2387 10.1559 53.0215 9.99878L53.0219 9.99918C52.8141 9.84768 52.607 9.72498 52.4012 9.63278L52.4004 9.63238L52.4016 9.63278C52.1973 9.54058 51.9473 9.44808 51.6488 9.35198H51.6492C51.282 9.23198 51.0086 9.09648 50.8297 8.95428H50.8301C50.6566 8.81368 50.5801 8.66058 50.5785 8.46678C50.5801 8.25038 50.6645 8.08128 50.8547 7.92968L50.8551 7.92928C51.0457 7.77928 51.273 7.70428 51.5508 7.70388C51.8477 7.70428 52.0773 7.77928 52.2551 7.92418L52.2563 7.92498L52.2551 7.92378C52.4418 8.07698 52.5508 8.23588 52.5949 8.40038L52.6242 8.51058L53.4328 8.17378L53.5172 8.13868L53.4898 8.05158C53.3879 7.72618 53.166 7.43238 52.8367 7.16908C52.4977 6.89838 52.059 6.76558 51.5344 6.76598C50.9684 6.76518 50.4945 6.93358 50.134 7.27108C49.7762 7.60348 49.5895 8.00938 49.5902 8.46678C49.5895 8.90238 49.7391 9.27378 50.032 9.55658C50.3215 9.83708 50.7379 10.0594 51.2785 10.2297H51.2793C51.7867 10.3844 52.1543 10.5516 52.375 10.7207C52.5867 10.8852 52.6891 11.1043 52.691 11.4164C52.6891 11.6922 52.5898 11.8922 52.3762 12.0527C52.157 12.2149 51.8938 12.2965 51.5762 12.2969C51.2758 12.2961 51.0117 12.1945 50.7656 11.982C50.5203 11.768 50.3621 11.5106 50.2824 11.1992L50.2543 11.0883L49.4441 11.416L49.3633 11.4484L49.3844 11.5328C49.5168 12.0676 49.8055 12.4922 50.2426 12.7899C50.6715 13.084 51.1184 13.2344 51.5762 13.2344V13.1344Z" fill="white"/>
<path d="M55.4563 9.832H56.7474C57.0716 9.832 57.3314 9.7234 57.5267 9.5059C57.722 9.2875 57.8192 9.048 57.8192 8.7852C57.8192 8.5227 57.722 8.282 57.5267 8.0645C57.3314 7.8461 57.0716 7.7371 56.7474 7.7371H55.4563V9.832ZM55.4563 13H54.6855V7H56.7306C57.2384 7 57.6786 7.1687 58.0497 7.5066C58.422 7.8445 58.6075 8.2711 58.6075 8.7852C58.6075 9.2988 58.422 9.7246 58.0497 10.0625C57.6786 10.4008 57.2384 10.5699 56.7306 10.5699H55.4563V13Z" fill="white"/>
<path d="M55.4567 9.83259V9.93259H56.7477C57.0934 9.93379 57.3879 9.81268 57.6012 9.57328C57.8102 9.34078 57.9203 9.07359 57.9195 8.78578C57.9203 8.49788 57.8102 8.23028 57.6012 7.99828C57.3879 7.75798 57.0938 7.63649 56.7477 7.63769H55.4567H55.3563V9.93259H55.4567V9.83259H55.5567V7.83769H56.7477C57.0496 7.83929 57.275 7.93539 57.4524 8.13179C57.634 8.33539 57.7192 8.54829 57.7195 8.78578C57.7192 9.02328 57.634 9.23538 57.4524 9.43969C57.275 9.63579 57.05 9.73149 56.7477 9.73259H55.4567V9.83259H55.5567H55.4567ZM55.4567 13.0006V12.9006H54.7859V7.10059H56.7309C57.2164 7.10139 57.6281 7.25958 57.9828 7.58148C58.3352 7.90288 58.5067 8.29549 58.5078 8.78578C58.5067 9.27518 58.3352 9.66739 57.9828 9.98929C57.6281 10.3115 57.2164 10.4697 56.7309 10.4705H55.4567H55.3563V13.0006H55.4567V12.9006V13.0006H55.5567V10.6705H56.7309C57.2609 10.6713 57.7301 10.4912 58.1176 10.1369C58.5094 9.78299 58.709 9.32358 58.7078 8.78578C58.709 8.24748 58.5094 7.78769 58.1176 7.43339C57.7301 7.07949 57.2609 6.89979 56.7309 6.90059H54.5859V13.1006H55.4567H55.5567V13.0006H55.4567Z" fill="white"/>
<path d="M60.6547 11.7221C61.0988 12.1717 61.6418 12.3963 62.2844 12.3963C62.9269 12.3963 63.4711 12.1717 63.914 11.7221C64.3586 11.2725 64.5812 10.6978 64.5812 9.99979C64.5812 9.30179 64.3586 8.72709 63.914 8.27749C63.4711 7.82789 62.9269 7.60329 62.2844 7.60329C61.6418 7.60329 61.0988 7.82789 60.6547 8.27749C60.2109 8.72709 59.9887 9.30179 59.9887 9.99979C59.9887 10.6978 60.2109 11.2725 60.6547 11.7221ZM64.4847 12.2244C63.8945 12.831 63.1613 13.1338 62.2844 13.1338C61.4074 13.1338 60.6738 12.831 60.0851 12.2244C59.4953 11.6185 59.2012 10.8768 59.2012 9.99979C59.2012 9.12279 59.4953 8.38099 60.0851 7.77519C60.6738 7.16849 61.4074 6.86539 62.2844 6.86539C63.1562 6.86539 63.8879 7.17009 64.4805 7.77909C65.0722 8.38809 65.3683 9.12829 65.3683 9.99979C65.3683 10.8768 65.0734 11.6185 64.4847 12.2244Z" fill="white"/>
<path d="M60.6551 11.7227L60.5836 11.793C61.0445 12.2606 61.6187 12.4981 62.2848 12.4969C62.9508 12.4981 63.5262 12.2606 63.9859 11.793C64.4492 11.325 64.6824 10.7195 64.6816 10.0004C64.6824 9.28127 64.4492 8.67577 63.9859 8.20777L63.9844 8.20658L63.9859 8.20777C63.5262 7.74017 62.9508 7.50267 62.2848 7.50387C61.6187 7.50267 61.0445 7.74017 60.5836 8.20777L60.5805 8.21128L60.5836 8.20777C60.1211 8.67577 59.8879 9.28127 59.8891 10.0004C59.8879 10.7195 60.1211 11.325 60.5836 11.793L60.6551 11.7227L60.7262 11.6524C60.3019 11.2207 60.0898 10.6777 60.0891 10.0004C60.0898 9.32307 60.3019 8.78008 60.7262 8.34838C61.1539 7.91678 61.6656 7.70507 62.2848 7.70387C62.9039 7.70507 63.4164 7.91678 63.8434 8.34838C64.2687 8.78008 64.4809 9.32307 64.4816 10.0004C64.4809 10.6777 64.2687 11.2207 63.8434 11.6524C63.4164 12.084 62.9039 12.2957 62.2848 12.2969C61.6656 12.2957 61.1539 12.084 60.7262 11.6524L60.6551 11.7227ZM64.4851 12.225L64.4133 12.1555C63.8402 12.743 63.1387 13.0332 62.2848 13.0344C61.4309 13.0332 60.7293 12.743 60.1574 12.1555H60.157C59.5851 11.566 59.3027 10.8551 59.3016 10.0004C59.3027 9.14567 59.5851 8.43477 60.157 7.84527H60.1574C60.7293 7.25777 61.4309 6.96718 62.2848 6.96597C63.1336 6.96718 63.8332 7.25897 64.4094 7.84957C64.9836 8.44177 65.268 9.15157 65.2687 10.0004C65.268 10.8551 64.9844 11.566 64.4133 12.1555L64.4851 12.225L64.5566 12.2945C65.1633 11.6719 65.4695 10.8996 65.4687 10.0004C65.4695 9.10627 65.1621 8.33557 64.5527 7.71017C63.9434 7.08237 63.1801 6.76487 62.2848 6.76597C61.3848 6.76487 60.6195 7.08087 60.0137 7.70627L60.0141 7.70587C59.4062 8.32887 59.1008 9.10117 59.1016 10.0004C59.1008 10.8996 59.4062 11.6719 60.0141 12.2949L60.0164 12.2977L60.0137 12.2945C60.6195 12.9199 61.3848 13.2352 62.2848 13.2344C63.1848 13.2352 63.95 12.9199 64.5566 12.2945L64.4851 12.225Z" fill="white"/>
<path d="M66.4512 13V7H67.3895L70.3059 11.6676H70.3391L70.3059 10.5113V7H71.077V13H70.2727L67.2219 8.1062H67.1887L67.2219 9.2629V13H66.4512Z" fill="white"/>
<path d="M66.4516 13.0006H66.5516V7.10059H67.3348L70.2508 11.7682H70.3395H70.4422L70.4059 10.5104L70.4063 7.10059H70.9774V12.9006H70.3281L67.2777 8.00679H67.1891H67.0859L67.1223 9.26468V12.9006H66.4516V13.0006H66.5516H66.4516V13.1006H67.2223H67.3223V9.26189L67.2887 8.10409L67.1891 8.10679V8.20679H67.2223V8.10679L67.1371 8.15999L70.2176 13.1006H71.0774H71.1774V6.90059H70.3063H70.2063V10.5131L70.2395 11.6709L70.3395 11.6682V11.5682H70.3063V11.6682L70.391 11.6151L67.4453 6.90059H66.4516H66.3516V13.1006H66.4516V13.0006Z" fill="white"/>
<path d="M72.4512 13V7H73.2219V13H72.4512Z" fill="white"/>
<path d="M72.4516 13.0006H72.5516V7.10059H73.1223V12.9006H72.4516V13.0006H72.5516H72.4516V13.1006H73.2223H73.3223V6.90059H72.4516H72.3516V13.1006H72.4516V13.0006Z" fill="white"/>
<path d="M75.366 12.2629H76.9172C77.2129 12.2629 77.4531 12.1594 77.6379 11.952C77.8223 11.7461 77.9141 11.5195 77.9141 11.2734C77.9141 11.0277 77.8191 10.8031 77.6289 10.5992C77.4395 10.3953 77.1902 10.293 76.8828 10.293H75.366V12.2629ZM75.366 9.5723H76.7656C77.0566 9.5723 77.2898 9.4766 77.4656 9.2832C77.6418 9.0906 77.7297 8.8801 77.7297 8.6508C77.7297 8.4219 77.6445 8.2117 77.4734 8.0227C77.3035 7.8324 77.0793 7.7371 76.7996 7.7371H75.366V9.5723ZM74.5957 13V7H76.7656C77.2355 7 77.6418 7.1555 77.9855 7.4648C78.3293 7.7754 78.5012 8.1648 78.5012 8.634C78.5012 8.9187 78.427 9.1703 78.2781 9.3883C78.1309 9.6062 77.9336 9.7711 77.6875 9.8828V9.916C77.9836 10.0164 78.2266 10.1898 78.4172 10.4355C78.6063 10.6816 78.702 10.9668 78.702 11.2906C78.702 11.782 78.5215 12.1898 78.1609 12.5137C77.8008 12.8379 77.375 13 76.8828 13H74.5957Z" fill="white"/>
<path d="M75.3664 12.2635V12.3635H76.9176C77.2363 12.3647 77.5109 12.2475 77.7129 12.0193H77.7125C77.9106 11.7994 78.0152 11.5455 78.0145 11.274C78.0152 11.0022 77.9067 10.7494 77.7024 10.5315C77.4949 10.3068 77.2125 10.1924 76.8832 10.1936H75.2664V12.3635H75.3664V12.2635H75.4664V10.3936H76.8832C77.1692 10.3947 77.3848 10.4854 77.5563 10.6678C77.7328 10.8584 77.8137 11.0549 77.8145 11.274C77.8137 11.4947 77.7348 11.694 77.5637 11.8861H77.5633C77.3961 12.0721 77.1902 12.1619 76.9176 12.1635H75.3664V12.2635H75.4664H75.3664ZM75.3664 9.57288V9.67288H76.766C77.0785 9.67398 77.3461 9.56618 77.5402 9.35098L77.5399 9.35138C77.7293 9.14508 77.8305 8.90678 77.8301 8.65138C77.8305 8.39748 77.7332 8.15998 77.5484 7.95608V7.95648C77.3609 7.74468 77.102 7.63648 76.8 7.63768H75.2664V9.67288H75.3664V9.57288H75.4664V7.83768H76.8C77.057 7.83928 77.2473 7.92128 77.3996 8.08968V8.09008C77.5567 8.26508 77.6293 8.44788 77.6301 8.65138C77.6293 8.85408 77.5547 9.03768 77.3926 9.21618L77.3922 9.21658C77.2348 9.38808 77.0356 9.47168 76.766 9.47288H75.3664V9.57288H75.4664H75.3664ZM74.5961 13.0006H74.6961V7.10058H76.766C77.2137 7.10138 77.5914 7.24588 77.9188 7.53968C78.243 7.83418 78.4 8.19008 78.4016 8.63458C78.4012 8.90218 78.3328 9.13148 78.1961 9.33258H78.1957C78.0582 9.53578 77.8774 9.68728 77.6465 9.79238L77.5879 9.81898V9.91658V9.98808L77.6559 10.0111C77.9344 10.1065 78.159 10.2666 78.3383 10.4975V10.4971C78.5145 10.7268 78.602 10.9869 78.6024 11.2912C78.6012 11.7584 78.4356 12.1322 78.0945 12.4401C77.7508 12.7483 77.3535 12.8998 76.8832 12.9006H74.5961V13.0006H74.6961H74.5961V13.1006H76.8832C77.3973 13.1014 77.8516 12.9287 78.2285 12.5885C78.6082 12.249 78.8039 11.8072 78.8024 11.2912C78.8031 10.9479 78.6992 10.6377 78.4965 10.3752V10.3748C78.2949 10.1147 78.0332 9.92788 77.7199 9.82208L77.6879 9.91658H77.7879V9.88338H77.6879L77.7293 9.97438C77.9906 9.85608 78.2043 9.67828 78.3617 9.44468L78.3613 9.44508C78.5215 9.21038 78.6016 8.93648 78.6016 8.63458C78.6027 8.14118 78.416 7.71778 78.0527 7.39118L78.0504 7.38928L78.0527 7.39118C77.6926 7.06578 77.2578 6.89978 76.766 6.90058H74.4961V13.1006H74.5961V13.0006Z" fill="white"/>
<path d="M79.7402 13V7H80.5109V12.2629H83.1086V13H79.7402Z" fill="white"/>
<path d="M79.7406 13.0006H79.8406V7.10059H80.4113V12.3635H83.009V12.9006H79.7406V13.0006H79.8406H79.7406V13.1006H83.209V12.2635V12.1635H80.6113V6.90059H79.7406H79.6406V13.1006H79.7406V13.0006Z" fill="white"/>
<path d="M87.5852 7.7371H84.8523V9.6395H87.3164V10.3605H84.8523V12.2629H87.5852V13H84.082V7H87.5852V7.7371Z" fill="white"/>
<path d="M87.5837 7.73769V7.63769H84.7508V9.74008H87.2149V10.2608L84.7508 10.2611V12.3635H87.4837V12.9006H84.1805V7.10059H87.4837V7.73769H87.5837V7.63769V7.73769H87.6837V7.00059V6.90059H83.9805V13.1006H87.6837V12.2635V12.1635H84.9508V10.4611H87.4149V9.64008V9.54008H84.9508V7.83769H87.6837V7.73769H87.5837Z" fill="white"/>
<path d="M94.3057 7.7371H91.5727V9.6395H94.0367V10.3605H91.5727V12.2629H94.3057V13H90.8027V7H94.3057V7.7371Z" fill="white"/>
<path d="M94.3042 7.73769V7.63769H91.4712V9.74008H93.9352V10.2608L91.4712 10.2611V12.3635H94.2042V12.9006H90.9012V7.10059H94.2042V7.73769H94.3042V7.63769V7.73769H94.4042V7.00059V6.90059H90.7012V13.1006H94.4042V12.2635V12.1635H91.6712V10.4611H94.1352V9.64008V9.54008H91.6712V7.83769H94.4042V7.73769H94.3042Z" fill="white"/>
<path d="M95.5117 13V7H96.4497L99.3657 11.6676H99.3987L99.3657 10.5113V7H100.138V13H99.3327L96.2817 8.1062H96.2487L96.2817 9.2629V13H95.5117Z" fill="white"/>
<path d="M95.5121 13.0006H95.6121V7.10059H96.3951L99.3111 11.7682H99.3991H99.5021L99.4661 10.5104V7.10059H100.038V12.9006H99.3881L96.3381 8.00679H96.2491H96.1461L96.1821 9.26468V12.9006H95.5121V13.0006H95.6121H95.5121V13.1006H96.2821H96.3821V9.26189L96.3491 8.10409L96.2491 8.10679V8.20679H96.2821V8.10679L96.1971 8.15999L99.2781 13.1006H100.138H100.238V6.90059H99.3661H99.2661V10.5131L99.2991 11.6709L99.3991 11.6682V11.5682H99.3661V11.6682L99.4511 11.6151L96.5061 6.90059H95.5121H95.4121V13.1006H95.5121V13.0006Z" fill="white"/>
</g>
<defs>
<linearGradient id="paint0_linear_1640_7836" x1="22.2998" y1="8.70985" x2="5.51726" y2="25.4923" gradientUnits="userSpaceOnUse">
<stop stop-color="#00A0FF"/>
<stop offset="0.00657445" stop-color="#00A1FF"/>
<stop offset="0.2601" stop-color="#00BEFF"/>
<stop offset="0.5122" stop-color="#00D2FF"/>
<stop offset="0.7604" stop-color="#00DFFF"/>
<stop offset="1" stop-color="#00E3FF"/>
</linearGradient>
<linearGradient id="paint1_linear_1640_7836" x1="34.3344" y1="20.0022" x2="10.1374" y2="20.0022" gradientUnits="userSpaceOnUse">
<stop stop-color="#FFE000"/>
<stop offset="0.4087" stop-color="#FFBD00"/>
<stop offset="0.7754" stop-color="#FFA500"/>
<stop offset="1" stop-color="#FF9C00"/>
</linearGradient>
<linearGradient id="paint2_linear_1640_7836" x1="25.3266" y1="22.2961" x2="2.5683" y2="45.0544" gradientUnits="userSpaceOnUse">
<stop stop-color="#FF3A44"/>
<stop offset="1" stop-color="#C31162"/>
</linearGradient>
<linearGradient id="paint3_linear_1640_7836" x1="7.79847" y1="0.177355" x2="17.961" y2="10.3399" gradientUnits="userSpaceOnUse">
<stop stop-color="#32A071"/>
<stop offset="0.0685" stop-color="#2DA771"/>
<stop offset="0.4762" stop-color="#15CF74"/>
<stop offset="0.8009" stop-color="#06E775"/>
<stop offset="1" stop-color="#00F076"/>
</linearGradient>
<linearGradient id="paint4_linear_1640_7836" x1="34.3379" y1="20.0021" x2="10.1271" y2="20.0021" gradientUnits="userSpaceOnUse">
<stop stop-color="#CCB300"/>
<stop offset="0.4087" stop-color="#CC9700"/>
<stop offset="0.7754" stop-color="#CC8400"/>
<stop offset="1" stop-color="#CC7D00"/>
</linearGradient>
<linearGradient id="paint5_linear_1640_7836" x1="25.329" y1="22.2961" x2="2.5707" y2="45.0544" gradientUnits="userSpaceOnUse">
<stop stop-color="#CC2E36"/>
<stop offset="1" stop-color="#9C0E4E"/>
</linearGradient>
<linearGradient id="paint6_linear_1640_7836" x1="22.2998" y1="8.70946" x2="5.51728" y2="25.492" gradientUnits="userSpaceOnUse">
<stop stop-color="#008DE0"/>
<stop offset="0.00657445" stop-color="#008DE0"/>
<stop offset="0.2601" stop-color="#00A7E0"/>
<stop offset="0.5122" stop-color="#00B8E0"/>
<stop offset="0.7604" stop-color="#00C4E0"/>
<stop offset="1" stop-color="#00C7E0"/>
</linearGradient>
<linearGradient id="paint7_linear_1640_7836" x1="25.3379" y1="22.2957" x2="2.57927" y2="45.0681" gradientUnits="userSpaceOnUse">
<stop stop-color="#E0333C"/>
<stop offset="1" stop-color="#AB0F56"/>
</linearGradient>
<linearGradient id="paint8_linear_1640_7836" x1="34.3348" y1="20.002" x2="10.1378" y2="20.002" gradientUnits="userSpaceOnUse">
<stop stop-color="#E0C500"/>
<stop offset="0.4087" stop-color="#E0A600"/>
<stop offset="0.7754" stop-color="#E09100"/>
<stop offset="1" stop-color="#E08900"/>
</linearGradient>
<linearGradient id="paint9_linear_1640_7836" x1="34.3352" y1="20.001" x2="10.1382" y2="20.001" gradientUnits="userSpaceOnUse">
<stop stop-color="#FFE840"/>
<stop offset="0.4087" stop-color="#FFCE40"/>
<stop offset="0.7754" stop-color="#FFBC40"/>
<stop offset="1" stop-color="#FFB540"/>
</linearGradient>
<linearGradient id="paint10_linear_1640_7836" x1="22.2997" y1="8.71004" x2="5.51725" y2="25.4925" gradientUnits="userSpaceOnUse">
<stop stop-color="#40B8FF"/>
<stop offset="0.00657445" stop-color="#40B9FF"/>
<stop offset="0.2601" stop-color="#40CEFF"/>
<stop offset="0.5122" stop-color="#40DDFF"/>
<stop offset="0.7604" stop-color="#40E7FF"/>
<stop offset="1" stop-color="#40EAFF"/>
</linearGradient>
<linearGradient id="paint11_linear_1640_7836" x1="7.7993" y1="0.176993" x2="17.9618" y2="10.3395" gradientUnits="userSpaceOnUse">
<stop stop-color="#65B895"/>
<stop offset="0.0685" stop-color="#62BD95"/>
<stop offset="0.4762" stop-color="#50DB97"/>
<stop offset="0.8009" stop-color="#44ED98"/>
<stop offset="1" stop-color="#40F498"/>
</linearGradient>
<clipPath id="clip0_1640_7836">
<rect width="135" height="40" fill="white" transform="translate(0.5)"/>
</clipPath>
</defs>
</svg>
