<svg width="136" height="40" viewBox="0 0 136 40" fill="none" xmlns="http://www.w3.org/2000/svg">
<g clip-path="url(#clip0_1640_7906)">
<path d="M130.5 3.8147e-06H5.5C2.75 3.8147e-06 0.5 2.25 0.5 5V35C0.5 37.75 2.75 40 5.5 40H130.5C133.25 40 135.5 37.75 135.5 35V5C135.5 2.25 133.25 3.8147e-06 130.5 3.8147e-06ZM130.5 0.800003C132.816 0.800003 134.7 2.6844 134.7 5V35C134.7 37.316 132.816 39.2004 130.5 39.2004H5.5C3.1844 39.2004 1.3 37.316 1.3 35V5C1.3 2.6844 3.1844 0.800003 5.5 0.800003H130.5Z" fill="white"/>
<path d="M25.0673 20.3015C25.078 19.4668 25.2979 18.6484 25.7065 17.9225C26.1152 17.1965 26.6994 16.5866 27.4047 16.1494C26.9566 15.5042 26.3655 14.9733 25.6783 14.5987C24.9912 14.2242 24.2268 14.0163 23.446 13.9917C21.7805 13.8155 20.1658 14.9965 19.3171 14.9965C18.4519 14.9965 17.1451 14.0092 15.738 14.0384C14.8278 14.0681 13.9407 14.3349 13.1633 14.813C12.3858 15.291 11.7444 15.964 11.3015 16.7663C9.3833 20.1147 10.8141 25.0357 12.6516 27.7424C13.571 29.0677 14.6454 30.5482 16.0513 30.4957C17.4271 30.4381 17.9409 29.6112 19.6015 29.6112C21.2468 29.6112 21.7288 30.4957 23.1633 30.4623C24.6395 30.4381 25.5696 29.131 26.4567 27.7931C27.1173 26.8488 27.6255 25.8051 27.9627 24.7006C27.1051 24.3349 26.3732 23.7227 25.8583 22.9404C25.3434 22.1581 25.0683 21.2403 25.0673 20.3015Z" fill="white"/>
<path d="M22.3588 12.2113C23.1637 11.2371 23.5602 9.98494 23.4642 8.7207C22.2345 8.85092 21.0986 9.44348 20.2828 10.3803C19.8839 10.838 19.5784 11.3704 19.3838 11.9472C19.1891 12.524 19.1091 13.1337 19.1484 13.7417C19.7635 13.7481 20.372 13.6137 20.9281 13.3486C21.4841 13.0835 21.9733 12.6946 22.3588 12.2113Z" fill="white"/>
<path d="M49.6233 27.1405H44.9285L43.801 30.497H41.8125L46.2594 18.0789H48.3254L52.7722 30.497H50.7498L49.6233 27.1405ZM45.4147 25.5917H49.1361L47.3016 20.1444H47.2503L45.4147 25.5917Z" fill="white"/>
<path d="M62.3768 25.9703C62.3768 28.7838 60.8832 30.5914 58.6293 30.5914C58.0583 30.6215 57.4905 30.4889 56.9908 30.2087C56.4911 29.9286 56.0798 29.5123 55.8039 29.0074H55.7612V33.4917H53.918V21.4429H55.7022V22.9488H55.7361C56.0246 22.4463 56.4429 22.0321 56.9464 21.7503C57.4499 21.4684 58.0198 21.3295 58.5954 21.3482C60.8745 21.3482 62.3768 23.1646 62.3768 25.9703ZM60.4822 25.9703C60.4822 24.1373 59.5427 22.9322 58.1091 22.9322C56.7008 22.9322 55.7535 24.1627 55.7535 25.9703C55.7535 27.7945 56.7008 29.0162 58.1091 29.0162C59.5427 29.0162 60.4822 27.8199 60.4822 25.9703Z" fill="white"/>
<path d="M72.2596 25.9703C72.2596 28.7837 70.766 30.5914 68.5121 30.5914C67.9411 30.6215 67.3733 30.4889 66.8736 30.2087C66.3739 29.9286 65.9626 29.5122 65.6867 29.0074H65.644V33.4917H63.8008V21.4429H65.5849V22.9488H65.6188C65.9074 22.4463 66.3257 22.0321 66.8292 21.7503C67.3327 21.4684 67.9026 21.3295 68.4782 21.3482C70.7573 21.3482 72.2596 23.1646 72.2596 25.9703ZM70.365 25.9703C70.365 24.1373 69.4255 22.9322 67.9919 22.9322C66.5836 22.9322 65.6363 24.1626 65.6363 25.9703C65.6363 27.7945 66.5836 29.0162 67.9919 29.0162C69.4255 29.0162 70.365 27.8199 70.365 25.9703H70.365Z" fill="white"/>
<path d="M78.7912 27.037C78.9277 28.2685 80.1143 29.077 81.7357 29.077C83.2893 29.077 84.4071 28.2684 84.4071 27.1581C84.4071 26.1942 83.733 25.6171 82.1367 25.2215L80.5405 24.8338C78.2788 24.2831 77.2288 23.2166 77.2288 21.4862C77.2288 19.3436 79.0808 17.8719 81.7105 17.8719C84.3131 17.8719 86.0973 19.3436 86.1574 21.4862H84.2967C84.1853 20.2469 83.1692 19.4989 81.6843 19.4989C80.1995 19.4989 79.1834 20.2557 79.1834 21.3573C79.1834 22.2352 79.8324 22.7518 81.4199 23.1473L82.7769 23.4832C85.304 24.0858 86.354 25.1092 86.354 26.9256C86.354 29.2488 84.5185 30.7039 81.5991 30.7039C78.8676 30.7039 77.0234 29.283 76.9043 27.0369L78.7912 27.037Z" fill="white"/>
<path d="M90.3334 19.3006V21.4432H92.0411V22.9149H90.3334V27.9061C90.3334 28.6815 90.6753 29.0428 91.426 29.0428C91.6287 29.0393 91.8311 29.0249 92.0323 28.9998V30.4627C91.6948 30.5263 91.3518 30.5551 91.0085 30.5486C89.1905 30.5486 88.4814 29.8602 88.4814 28.1043V22.9149H87.1758V21.4432H88.4814V19.3006H90.3334Z" fill="white"/>
<path d="M93.0293 25.9705C93.0293 23.1219 94.6933 21.3319 97.2882 21.3319C99.8918 21.3319 101.548 23.1219 101.548 25.9705C101.548 28.827 99.9005 30.6092 97.2882 30.6092C94.6768 30.6092 93.0293 28.827 93.0293 25.9705ZM99.67 25.9705C99.67 24.0164 98.7818 22.8631 97.2882 22.8631C95.7946 22.8631 94.9074 24.0252 94.9074 25.9705C94.9074 27.9325 95.7946 29.077 97.2882 29.077C98.7818 29.077 99.67 27.9325 99.67 25.9705H99.67Z" fill="white"/>
<path d="M103.068 21.4428H104.826V22.9838H104.869C104.988 22.5026 105.268 22.0772 105.661 21.7793C106.054 21.4815 106.537 21.3292 107.029 21.3481C107.241 21.3474 107.453 21.3706 107.661 21.4174V23.1557C107.392 23.0731 107.113 23.0352 106.832 23.0434C106.565 23.0325 106.298 23.0801 106.05 23.183C105.802 23.2858 105.579 23.4416 105.397 23.6395C105.214 23.8374 105.076 24.0727 104.993 24.3294C104.909 24.5861 104.881 24.858 104.912 25.1264V30.4965H103.068L103.068 21.4428Z" fill="white"/>
<path d="M116.159 27.8377C115.911 29.4813 114.324 30.6092 112.292 30.6092C109.68 30.6092 108.059 28.8446 108.059 26.0135C108.059 23.1737 109.689 21.3319 112.215 21.3319C114.699 21.3319 116.262 23.0526 116.262 25.7977V26.4344H109.919V26.5467C109.89 26.8799 109.931 27.2156 110.041 27.5314C110.15 27.8473 110.325 28.136 110.553 28.3786C110.782 28.6211 111.059 28.8119 111.366 28.9382C111.673 29.0645 112.003 29.1235 112.335 29.1112C112.771 29.1523 113.208 29.0506 113.581 28.8212C113.955 28.5917 114.245 28.2468 114.409 27.8377L116.159 27.8377ZM109.928 25.1356H114.417C114.434 24.836 114.389 24.5362 114.285 24.255C114.181 23.9738 114.021 23.7172 113.814 23.5015C113.607 23.2857 113.358 23.1154 113.083 23.0011C112.808 22.8869 112.512 22.8313 112.215 22.8377C111.915 22.8359 111.617 22.8941 111.339 23.0088C111.062 23.1236 110.809 23.2926 110.597 23.5063C110.384 23.7199 110.215 23.9739 110.101 24.2535C109.986 24.5332 109.927 24.833 109.928 25.1356V25.1356Z" fill="white"/>
<path d="M41.8125 11.7163C41.8125 9.78124 42.8334 8.58593 44.4781 8.58593C45.0709 8.55633 45.653 8.75254 46.109 9.13561C46.5649 9.51869 46.8613 10.0606 46.9393 10.6538H46.024C45.9472 10.3023 45.7503 9.98912 45.4677 9.76911C45.1851 9.54909 44.8349 9.43621 44.4781 9.45019C43.4155 9.45019 42.7511 10.3227 42.7511 11.7163C42.7511 13.1059 43.4155 13.978 44.482 13.978C44.8257 14.004 45.1676 13.9084 45.449 13.7077C45.7305 13.507 45.9337 13.2138 46.024 12.8784H46.9393C46.85 13.4575 46.5474 13.9813 46.0919 14.3453C45.6364 14.7094 45.0615 14.8868 44.482 14.8423C42.8373 14.8423 41.8125 13.6474 41.8125 11.7163Z" fill="white"/>
<path d="M47.9436 12.4438C47.9155 12.1479 47.9491 11.8493 48.0421 11.5672C48.1352 11.2852 48.2857 11.0258 48.484 10.8059C48.6823 10.5859 48.9241 10.4101 49.1937 10.2898C49.4633 10.1696 49.7549 10.1074 50.0498 10.1074C50.3446 10.1074 50.6362 10.1696 50.9058 10.2898C51.1755 10.4101 51.4172 10.5859 51.6155 10.8059C51.8138 11.0258 51.9644 11.2852 52.0574 11.5672C52.1505 11.8493 52.1841 12.1479 52.156 12.4438C52.1846 12.74 52.1514 13.039 52.0586 13.3215C51.9658 13.6041 51.8154 13.8639 51.617 14.0843C51.4186 14.3047 51.1767 14.4808 50.9068 14.6014C50.6369 14.7219 50.345 14.7842 50.0498 14.7842C49.7546 14.7842 49.4627 14.7219 49.1927 14.6014C48.9228 14.4808 48.6809 14.3047 48.4826 14.0843C48.2842 13.8639 48.1338 13.6041 48.041 13.3215C47.9481 13.039 47.9149 12.74 47.9436 12.4438ZM51.2494 12.4438C51.2494 11.4677 50.8145 10.8969 50.0512 10.8969C49.2851 10.8969 48.8541 11.4677 48.8541 12.4438C48.8541 13.4277 49.2851 13.9941 50.0512 13.9941C50.8145 13.9941 51.2494 13.4238 51.2494 12.4438H51.2494Z" fill="white"/>
<path d="M53.3398 10.1939H54.1883V10.9092H54.2542C54.3659 10.6523 54.5544 10.4369 54.7933 10.2931C55.0322 10.1493 55.3097 10.0842 55.587 10.107C55.8043 10.0905 56.0225 10.1235 56.2254 10.2036C56.4284 10.2837 56.6108 10.4088 56.7593 10.5697C56.9078 10.7305 57.0184 10.923 57.0831 11.1328C57.1478 11.3426 57.1648 11.5644 57.1329 11.7818V14.6968H56.2515V12.0049C56.2515 11.2813 55.9396 10.9214 55.2877 10.9214C55.1402 10.9145 54.9929 10.9398 54.8559 10.9957C54.719 11.0515 54.5957 11.1365 54.4944 11.2449C54.3931 11.3533 54.3162 11.4825 54.2691 11.6236C54.222 11.7647 54.2056 11.9145 54.2213 12.0625V14.6968H53.3398V10.1939Z" fill="white"/>
<path d="M60.1274 10.1074C61.1318 10.1074 61.7885 10.5786 61.8747 11.3726H61.0291C60.9478 11.042 60.6272 10.8311 60.1274 10.8311C59.6353 10.8311 59.2615 11.0664 59.2615 11.418C59.2615 11.687 59.4872 11.8565 59.9715 11.9683L60.7134 12.1416C61.5628 12.3403 61.9609 12.7085 61.9609 13.3701C61.9609 14.2178 61.1774 14.7842 60.1109 14.7842C59.0483 14.7842 58.3558 14.3003 58.2773 13.5024H59.1598C59.2358 13.6923 59.3729 13.851 59.5491 13.9529C59.7253 14.0548 59.9303 14.0941 60.1313 14.0644C60.6805 14.0644 61.0708 13.8164 61.0708 13.4565C61.0708 13.188 60.8616 13.0142 60.4141 12.9067L59.6354 12.7246C58.7859 12.522 58.3926 12.1377 58.3926 11.4678C58.3926 10.6694 59.1181 10.1074 60.1274 10.1074Z" fill="white"/>
<path d="M63.0742 9.44189L64.1038 8.01953H65.1374L63.9847 9.44189H63.0742ZM63.1653 10.1948H64.0428V14.6978H63.1653V10.1948Z" fill="white"/>
<path d="M65.4165 15.1484H66.3183C66.3929 15.4751 66.7658 15.686 67.3605 15.686C68.0947 15.686 68.5296 15.3344 68.5296 14.7392V13.875H68.4637C68.3255 14.1169 68.1236 14.3156 67.8803 14.4491C67.6371 14.5825 67.362 14.6456 67.0854 14.6313C65.9454 14.6313 65.2402 13.7426 65.2402 12.3945C65.2402 11.0215 65.9531 10.1201 67.0941 10.1201C67.3776 10.1101 67.6584 10.1789 67.9057 10.3189C68.1531 10.459 68.3575 10.6648 68.4967 10.914H68.5664V10.1948H69.411V14.7348C69.411 15.7646 68.611 16.4179 67.3479 16.4179C66.2321 16.418 65.5105 15.9135 65.4165 15.1484ZM68.5461 12.3901C68.5461 11.4931 68.086 10.9184 67.3353 10.9184C66.5769 10.9184 66.1507 11.4931 66.1507 12.3901C66.1507 13.2876 66.5769 13.8623 67.3353 13.8623C68.0908 13.8623 68.5461 13.292 68.5461 12.3901Z" fill="white"/>
<path d="M74.5815 14.6982H73.7321V13.9829H73.6623C73.5494 14.2425 73.3584 14.4597 73.1162 14.6037C72.874 14.7477 72.593 14.8112 72.3131 14.7852C72.0971 14.8006 71.8803 14.7671 71.6788 14.6871C71.4773 14.6071 71.2961 14.4826 71.1486 14.3228C71.001 14.163 70.8908 13.9719 70.8261 13.7635C70.7614 13.5551 70.7437 13.3348 70.7745 13.1187V10.1953H71.6573V12.8872C71.6573 13.6147 71.948 13.9624 72.5959 13.9624C72.7462 13.9768 72.8977 13.9572 73.0395 13.905C73.1812 13.8528 73.3096 13.7694 73.4154 13.6608C73.5211 13.5522 73.6014 13.4212 73.6505 13.2773C73.6996 13.1334 73.7162 12.9803 73.6992 12.8291V10.1953H74.5815V14.6982Z" fill="white"/>
<path d="M79.7616 13.4815C79.6418 13.8931 79.3824 14.2491 79.0286 14.4872C78.6748 14.7253 78.2492 14.8305 77.8263 14.7843C77.5321 14.7921 77.2397 14.7353 76.9694 14.6177C76.6991 14.5002 76.4574 14.3248 76.2611 14.1036C76.0648 13.8825 75.9186 13.621 75.8326 13.3371C75.7466 13.0533 75.7229 12.754 75.7632 12.46C75.724 12.1652 75.7481 11.8652 75.8339 11.5805C75.9197 11.2959 76.0651 11.0331 76.2604 10.81C76.4557 10.587 76.6962 10.4088 76.9657 10.2876C77.2352 10.1664 77.5273 10.105 77.8224 10.1075C79.0651 10.1075 79.8148 10.9635 79.8148 12.3775V12.6876H76.6611V12.7374C76.6473 12.9026 76.6679 13.069 76.7215 13.2257C76.7752 13.3825 76.8608 13.5262 76.9728 13.6476C77.0848 13.7691 77.2207 13.8656 77.3718 13.931C77.523 13.9964 77.686 14.0292 77.8505 14.0274C78.0613 14.0529 78.275 14.0146 78.4642 13.9174C78.6534 13.8202 78.8096 13.6685 78.9131 13.4815L79.7616 13.4815ZM76.6611 12.0304H78.9169C78.928 11.8792 78.9077 11.7274 78.8571 11.5847C78.8066 11.442 78.727 11.3115 78.6235 11.2017C78.5199 11.0918 78.3947 11.005 78.2559 10.9468C78.1172 10.8886 77.9678 10.8604 77.8176 10.8639C77.6651 10.8619 77.5138 10.8908 77.3726 10.9487C77.2314 11.0067 77.1031 11.0925 76.9953 11.2012C76.8876 11.31 76.8025 11.4393 76.745 11.5817C76.6876 11.7241 76.6591 11.8767 76.6611 12.0304Z" fill="white"/>
<path d="M81.0391 8.4375H81.9205V14.6982H81.0391V8.4375Z" fill="white"/>
<path d="M83.1467 12.4438C83.1186 12.1479 83.1522 11.8493 83.2453 11.5672C83.3383 11.2852 83.4888 11.0258 83.6872 10.8059C83.8855 10.5859 84.1272 10.4101 84.3968 10.2898C84.6665 10.1696 84.9581 10.1074 85.2529 10.1074C85.5477 10.1074 85.8393 10.1696 86.109 10.2898C86.3786 10.4101 86.6203 10.5859 86.8186 10.8059C87.017 11.0258 87.1675 11.2852 87.2606 11.5672C87.3536 11.8493 87.3872 12.1479 87.3591 12.4438C87.3877 12.74 87.3546 13.039 87.2617 13.3215C87.1689 13.6041 87.0185 13.8639 86.8201 14.0843C86.6218 14.3047 86.3798 14.4808 86.1099 14.6014C85.84 14.7219 85.5481 14.7842 85.2529 14.7842C84.9577 14.7842 84.6658 14.7219 84.3959 14.6014C84.126 14.4808 83.8841 14.3047 83.6857 14.0843C83.4873 13.8639 83.3369 13.6041 83.2441 13.3215C83.1512 13.039 83.1181 12.74 83.1467 12.4438ZM86.4525 12.4438C86.4525 11.4677 86.0176 10.8969 85.2544 10.8969C84.4882 10.8969 84.0572 11.4677 84.0572 12.4438C84.0572 13.4277 84.4882 13.9941 85.2544 13.9941C86.0176 13.9941 86.4525 13.4238 86.4525 12.4438H86.4525Z" fill="white"/>
<path d="M94.7401 13.4815C94.6203 13.8931 94.3609 14.2491 94.0071 14.4872C93.6533 14.7253 93.2277 14.8305 92.8048 14.7843C92.5106 14.7921 92.2182 14.7353 91.9479 14.6177C91.6776 14.5002 91.4359 14.3248 91.2396 14.1036C91.0433 13.8825 90.8971 13.621 90.8111 13.3371C90.7252 13.0533 90.7015 12.754 90.7417 12.46C90.7025 12.1652 90.7266 11.8652 90.8124 11.5805C90.8982 11.2959 91.0436 11.0331 91.2389 10.81C91.4342 10.587 91.6747 10.4088 91.9442 10.2876C92.2137 10.1664 92.5059 10.105 92.8009 10.1075C94.0437 10.1075 94.7934 10.9635 94.7934 12.3775V12.6876H91.6396V12.7374C91.6258 12.9026 91.6464 13.069 91.7001 13.2257C91.7538 13.3825 91.8393 13.5262 91.9513 13.6476C92.0633 13.7691 92.1992 13.8656 92.3504 13.931C92.5015 13.9964 92.6646 14.0292 92.829 14.0274C93.0399 14.0529 93.2535 14.0146 93.4427 13.9174C93.6319 13.8202 93.7882 13.6685 93.8916 13.4815L94.7401 13.4815ZM91.6396 12.0304H93.8955C93.9066 11.8792 93.8862 11.7274 93.8357 11.5847C93.7852 11.442 93.7056 11.3115 93.602 11.2017C93.4985 11.0918 93.3733 11.005 93.2345 10.9468C93.0957 10.8886 92.9464 10.8604 92.7961 10.8639C92.6437 10.8619 92.4924 10.8908 92.3512 10.9487C92.21 11.0067 92.0817 11.0925 91.9739 11.2012C91.8661 11.3099 91.781 11.4393 91.7236 11.5817C91.6662 11.7241 91.6376 11.8767 91.6396 12.0304H91.6396Z" fill="white"/>
<path d="M95.9785 10.1939H96.827V10.9092H96.8929C97.0046 10.6523 97.1931 10.4369 97.432 10.2931C97.6709 10.1493 97.9483 10.0842 98.2257 10.107C98.443 10.0905 98.6612 10.1235 98.8641 10.2036C99.067 10.2837 99.2495 10.4088 99.398 10.5697C99.5464 10.7305 99.6571 10.923 99.7218 11.1328C99.7864 11.3426 99.8034 11.5644 99.7715 11.7818V14.6968H98.8901V12.0049C98.8901 11.2813 98.5782 10.9214 97.9264 10.9214C97.7788 10.9145 97.6315 10.9398 97.4946 10.9957C97.3577 11.0515 97.2343 11.1365 97.133 11.2449C97.0318 11.3533 96.9549 11.4825 96.9078 11.6236C96.8606 11.7647 96.8443 11.9145 96.8599 12.0625V14.6968H95.9785V10.1939Z" fill="white"/>
<path d="M107.334 13.4815C107.214 13.8931 106.955 14.2491 106.601 14.4872C106.247 14.7253 105.821 14.8305 105.399 14.7843C105.104 14.7921 104.812 14.7353 104.542 14.6177C104.271 14.5002 104.03 14.3248 103.833 14.1036C103.637 13.8825 103.491 13.621 103.405 13.3371C103.319 13.0533 103.295 12.754 103.335 12.46C103.296 12.1652 103.32 11.8652 103.406 11.5805C103.492 11.2959 103.637 11.0331 103.833 10.81C104.028 10.587 104.268 10.4088 104.538 10.2876C104.807 10.1664 105.1 10.105 105.395 10.1075C106.637 10.1075 107.387 10.9635 107.387 12.3775V12.6876H104.233V12.7374C104.22 12.9026 104.24 13.069 104.294 13.2257C104.348 13.3825 104.433 13.5262 104.545 13.6476C104.657 13.7691 104.793 13.8656 104.944 13.931C105.095 13.9964 105.258 14.0292 105.423 14.0274C105.634 14.0529 105.847 14.0146 106.036 13.9174C106.226 13.8202 106.382 13.6685 106.485 13.4815L107.334 13.4815ZM104.233 12.0304H106.489C106.5 11.8792 106.48 11.7274 106.429 11.5847C106.379 11.442 106.299 11.3115 106.196 11.2017C106.092 11.0918 105.967 11.005 105.828 10.9468C105.689 10.8886 105.54 10.8604 105.39 10.8639C105.237 10.8619 105.086 10.8908 104.945 10.9487C104.804 11.0067 104.675 11.0925 104.568 11.2013C104.46 11.31 104.375 11.4393 104.317 11.5817C104.26 11.7241 104.231 11.8767 104.233 12.0304H104.233Z" fill="white"/>
<path d="M108.611 8.43652H109.493V14.6973H108.611V8.43652Z" fill="white"/>
</g>
<defs>
<clipPath id="clip0_1640_7906">
<rect width="135" height="40" fill="white" transform="translate(0.5)"/>
</clipPath>
</defs>
</svg>
