<svg width="136" height="40" viewBox="0 0 136 40" fill="none" xmlns="http://www.w3.org/2000/svg">
<path d="M130.579 -0.000148773H5.50304C2.75137 -0.000148773 0.5 2.24985 0.5 4.99985V34.9998C0.5 37.7498 2.75137 39.9998 5.50304 39.9998H130.579C133.331 39.9998 135.582 37.7498 135.582 34.9998V4.99985C135.582 2.24985 133.331 -0.000148773 130.579 -0.000148773ZM130.579 0.79985C132.896 0.79985 134.781 2.68425 134.781 4.99985V34.9998C134.781 37.3158 132.896 39.2002 130.579 39.2002H5.50304C3.18603 39.2002 1.30049 37.3158 1.30049 34.9998V4.99985C1.30049 2.68425 3.18603 0.79985 5.50304 0.79985H130.579Z" fill="white"/>
<path d="M47.6949 24.682L45.7061 19.3083L43.7265 24.682H47.6949ZM40.7617 28.6689L44.8846 17.8661H46.5368L50.6597 28.6689H49.1372L48.152 25.8957H43.2879L42.3028 28.6689H40.7617ZM53.4608 27.4552V31.7511H52.1297V20.5653H53.4608V21.7882C53.7418 21.3064 54.0939 20.9513 54.5201 20.7197C54.9524 20.4819 55.462 20.3645 56.0519 20.3645C57.037 20.3645 57.8369 20.7567 58.4515 21.5412C59.0722 22.3194 59.381 23.3478 59.381 24.6264C59.381 25.8987 59.0722 26.9241 58.4515 27.7116C57.8369 28.4898 57.037 28.8789 56.0519 28.8789C55.462 28.8789 54.9524 28.7647 54.5201 28.5331C54.0939 28.2953 53.7418 27.9339 53.4608 27.4552ZM57.9944 24.6264C57.9944 23.6474 57.7906 22.8784 57.3829 22.3194C56.9876 21.7604 56.4379 21.4794 55.7307 21.4794C55.0266 21.4794 54.4676 21.7604 54.0599 22.3194C53.6584 22.8784 53.4577 23.6474 53.4577 24.6264C53.4577 25.6054 53.6584 26.3743 54.0599 26.9333C54.4676 27.4861 55.0235 27.7641 55.7307 27.7641C56.4348 27.7641 56.9876 27.4861 57.3829 26.9333C57.7906 26.3743 57.9944 25.6054 57.9944 24.6264ZM62.877 27.4552V31.7511H61.5367V20.5653H62.877V21.7882C63.158 21.3064 63.507 20.9513 63.927 20.7197C64.3594 20.4819 64.872 20.3645 65.4681 20.3645C66.4471 20.3645 67.2438 20.7567 67.8584 21.5412C68.4792 22.3194 68.788 23.3478 68.788 24.6264C68.788 25.8987 68.4792 26.9241 67.8584 27.7116C67.2438 28.4898 66.4471 28.8789 65.4681 28.8789C64.872 28.8789 64.3594 28.7647 63.927 28.5331C63.507 28.2953 63.1549 27.9339 62.877 27.4552ZM67.4014 24.6264C67.4014 23.6474 67.1975 22.8784 66.7899 22.3194C66.3946 21.7604 65.8448 21.4794 65.1376 21.4794C64.4335 21.4794 63.8745 21.7604 63.4669 22.3194C63.0716 22.8784 62.8739 23.6474 62.8739 24.6264C62.8739 25.6054 63.0716 26.3743 63.4669 26.9333C63.8745 27.4861 64.4304 27.7641 65.1376 27.7641C65.8418 27.7641 66.3946 27.4861 66.7899 26.9333C67.1975 26.3743 67.4014 25.6054 67.4014 24.6264ZM78.3679 27.1279V24.228H75.9868V23.0235H79.8194V27.6683C79.2542 28.0698 78.6304 28.3725 77.9479 28.5794C77.2715 28.7801 76.5489 28.8789 75.7768 28.8789C74.0844 28.8789 72.7626 28.3848 71.8083 27.3997C70.8602 26.4145 70.3846 25.0402 70.3846 23.2768C70.3846 21.5134 70.8602 20.1391 71.8083 19.1539C72.7626 18.1626 74.0875 17.6654 75.7768 17.6654C76.4809 17.6654 77.148 17.7549 77.7749 17.9309C78.4142 18.1008 79.001 18.3571 79.5353 18.6968V20.2564C78.9948 19.7932 78.4204 19.4473 77.812 19.2157C77.2036 18.9841 76.5643 18.8698 75.8972 18.8698C74.5785 18.8698 73.5841 19.2373 72.914 19.9723C72.2561 20.7135 71.9288 21.816 71.9288 23.2737C71.9288 24.7314 72.2561 25.8308 72.914 26.5658C73.5841 27.3008 74.5785 27.6683 75.8972 27.6683C76.413 27.6683 76.8762 27.6251 77.2839 27.5417C77.6854 27.4552 78.0467 27.3163 78.3679 27.1279ZM87.3919 24.5893H86.0701C84.9923 24.5893 84.248 24.7128 83.8342 24.963C83.4203 25.207 83.2134 25.627 83.2134 26.223C83.2134 26.6986 83.3678 27.0754 83.6797 27.3533C83.9886 27.6282 84.4117 27.7641 84.949 27.7641C85.6902 27.7641 86.2832 27.5016 86.7279 26.9796C87.1726 26.4577 87.395 25.7598 87.395 24.8889V24.5893H87.3919ZM88.7229 24.0427V28.6689H87.3919V27.4367C87.0892 27.9308 86.7094 28.2953 86.2616 28.5331C85.8045 28.7647 85.2486 28.8789 84.5908 28.8789C83.7631 28.8789 83.1022 28.6473 82.6112 28.1841C82.1232 27.7147 81.8824 27.0877 81.8824 26.3033C81.8824 25.3984 82.185 24.7097 82.7934 24.2403C83.408 23.7771 84.319 23.5455 85.5296 23.5455H87.3919V23.4188C87.3919 22.8043 87.1911 22.3287 86.7897 21.9951C86.3882 21.6616 85.823 21.4948 85.0942 21.4948C84.6309 21.4948 84.1831 21.5504 83.7446 21.6585C83.3061 21.7666 82.883 21.9365 82.4753 22.1588V20.9266C82.9633 20.7382 83.4358 20.5992 83.899 20.5066C84.3561 20.4078 84.7977 20.3614 85.2301 20.3614C86.4036 20.3614 87.2807 20.6641 87.8582 21.2725C88.4357 21.887 88.7229 22.8074 88.7229 24.0427ZM91.4684 28.6689V17.4121H92.7995V28.6689H91.4684ZM95.5851 28.6689V17.4121H96.9162V28.6689H95.5851ZM106.595 24.2805V24.9383H100.474C100.529 25.8493 100.801 26.5504 101.295 27.0352C101.793 27.5108 102.484 27.7455 103.368 27.7455C103.877 27.7455 104.371 27.6838 104.847 27.5633C105.335 27.4367 105.81 27.2483 106.28 26.9982V28.2582C105.804 28.4589 105.316 28.6134 104.81 28.7245C104.313 28.8264 103.803 28.8789 103.287 28.8789C101.996 28.8789 100.974 28.5022 100.211 27.7486C99.4578 27.0013 99.0811 25.9852 99.0811 24.7005C99.0811 23.3694 99.4393 22.3163 100.159 21.5442C100.875 20.7598 101.845 20.3676 103.059 20.3676C104.149 20.3676 105.008 20.7197 105.641 21.4269C106.277 22.1248 106.595 23.076 106.595 24.2805ZM100.511 23.8975H105.264C105.251 23.1687 105.045 22.585 104.643 22.1465C104.248 21.7141 103.723 21.4979 103.065 21.4979C102.324 21.4979 101.728 21.7079 101.277 22.1279C100.832 22.5479 100.579 23.1378 100.511 23.8975ZM113.42 20.4386L113.429 21.8068C113.278 21.7203 113.114 21.6585 112.935 21.6153C112.756 21.572 112.568 21.5504 112.361 21.5504C111.607 21.5504 111.027 21.7975 110.619 22.2885C110.217 22.7765 110.017 23.4775 110.017 24.3947V28.6659H108.686V20.5653H110.017V21.8253C110.298 21.3312 110.662 20.9667 111.113 20.7289C111.564 20.485 112.107 20.3645 112.747 20.3645C112.839 20.3645 112.941 20.3738 113.056 20.3923C113.164 20.3985 113.287 20.4139 113.42 20.4386ZM121.758 20.5653L118.201 29.4163C117.824 30.3829 117.456 31.016 117.098 31.3125C116.74 31.6059 116.261 31.7511 115.665 31.7511H114.597V30.6393H115.381C115.746 30.6393 116.033 30.5497 116.24 30.3737C116.44 30.2038 116.663 29.7931 116.907 29.1414L117.154 28.5392L113.868 20.5653H115.282L117.818 26.8963L120.344 20.5653H121.758Z" fill="white"/>
<path d="M40.7617 12.9832V8.106H43.842V8.65721H41.4156V10.1028H43.7393V10.6621H41.4156V12.4265H43.9069V12.9859H40.7617V12.9832ZM46.2711 10.3811L44.7553 8.106H45.4659L46.6791 9.91905L47.8924 8.106H48.603L47.0385 10.446L48.7057 12.9832H47.995L46.6305 10.908L45.2417 12.9832H44.531L46.2711 10.3811ZM51.0591 8.6491H50.2296V10.4784H51.0591C51.3672 10.4784 51.6076 10.4 51.7779 10.246C51.9427 10.0866 52.0265 9.85691 52.0265 9.55968C52.0265 9.27327 51.9427 9.049 51.7779 8.88958C51.6076 8.73016 51.3672 8.6491 51.0591 8.6491ZM49.5757 12.9832V8.106H51.0591C51.6076 8.106 52.0211 8.22759 52.3048 8.47347C52.5804 8.72476 52.7209 9.08413 52.7209 9.55968C52.7209 10.0433 52.5831 10.4081 52.3048 10.654C52.0238 10.8999 51.6076 11.0215 51.0591 11.0215H50.2296V12.9859H49.5757V12.9832ZM53.6071 12.9832V8.106H54.2691V12.4238H56.6469V12.9832H53.6071ZM59.0814 8.55453C58.6032 8.55453 58.2195 8.73287 57.9331 9.08953C57.6575 9.4462 57.517 9.93257 57.517 10.5513C57.517 11.162 57.6548 11.6511 57.9331 12.0131C58.2195 12.3698 58.6032 12.5481 59.0814 12.5481C59.5597 12.5481 59.938 12.3698 60.2136 12.0131C60.4946 11.6511 60.6378 11.1647 60.6378 10.5513C60.6378 9.93527 60.4973 9.4462 60.2136 9.08953C59.938 8.73017 59.5597 8.55453 59.0814 8.55453ZM59.0814 8.01953C59.7623 8.01953 60.3082 8.24921 60.7189 8.70585C61.1296 9.16249 61.3322 9.77855 61.3322 10.5486C61.3322 11.3214 61.1269 11.9348 60.7189 12.3914C60.3082 12.848 59.7623 13.0777 59.0814 13.0777C58.3951 13.0777 57.8439 12.848 57.4278 12.3914C57.0171 11.9348 56.8144 11.3187 56.8144 10.5486C56.8144 9.77585 57.0198 9.16249 57.4278 8.70585C57.8439 8.2465 58.3951 8.01953 59.0814 8.01953ZM64.6773 10.6918C64.8205 10.7405 64.9583 10.8431 65.0934 11.0026C65.2258 11.1566 65.3609 11.3727 65.5014 11.6484L66.1715 12.9804H65.4609L64.8395 11.7267C64.6746 11.4025 64.5179 11.1863 64.3693 11.0809C64.2153 10.9755 64.0072 10.9215 63.7478 10.9215H63.0291V12.9804H62.3671V8.106H63.8586C64.4179 8.106 64.834 8.22219 65.1124 8.45726C65.3826 8.68693 65.5204 9.0382 65.5204 9.51105C65.5204 9.81908 65.4474 10.0758 65.3042 10.2784C65.1556 10.4784 64.9502 10.6189 64.6773 10.6918ZM63.8559 8.6491H63.0264V10.3811H63.8559C64.1748 10.3811 64.4152 10.3054 64.5747 10.1568C64.7395 10.0082 64.8232 9.79206 64.8232 9.51105C64.8232 9.22464 64.7395 9.00847 64.5747 8.86527C64.4152 8.72206 64.1748 8.6491 63.8559 8.6491ZM67.0173 12.9832V8.106H70.0976V8.65721H67.6793V10.1028H70.003V10.6621H67.6793V12.4265H70.1624V12.9859H67.0173V12.9832ZM73.3697 12.9832V8.106H74.0317V12.9832H73.3697ZM74.6721 8.65721V8.106H78.7981V8.65721H77.0661V12.9832H76.4041V8.65721H74.6721ZM83.5402 8.55453C83.0619 8.55453 82.6809 8.73287 82.3999 9.08953C82.1189 9.4462 81.9757 9.93257 81.9757 10.5513C81.9757 11.162 82.1162 11.6511 82.3999 12.0131C82.6809 12.3698 83.0619 12.5481 83.5402 12.5481C84.0184 12.5481 84.3994 12.3698 84.6804 12.0131C84.956 11.6511 85.0965 11.1647 85.0965 10.5513C85.0965 9.93527 84.9587 9.4462 84.6804 9.08953C84.3994 8.73017 84.0184 8.55453 83.5402 8.55453ZM83.5402 8.01953C84.2265 8.01953 84.775 8.24921 85.1857 8.70585C85.5964 9.16249 85.7991 9.77855 85.7991 10.5486C85.7991 11.3214 85.5937 11.9348 85.1857 12.3914C84.7777 12.848 84.2265 13.0777 83.5402 13.0777C82.8539 13.0777 82.3053 12.848 81.8946 12.3914C81.4839 11.9348 81.2813 11.3187 81.2813 10.5486C81.2813 9.77585 81.4866 9.16249 81.8946 8.70585C82.3053 8.2465 82.8539 8.01953 83.5402 8.01953ZM86.8285 12.9832V8.106H87.7148L89.8791 12.1861V8.106H90.5249V12.9832H89.6305L87.4662 8.90309V12.9832H86.8285Z" fill="white"/>
<path d="M24.1711 8.68652H14.281C9.61604 8.68652 7.9082 10.3851 7.9082 15.0501V24.9402C7.9082 29.6052 9.61604 31.3131 14.281 31.3131H24.1711C28.8269 31.3131 30.5347 29.6052 30.5347 24.9402V15.0501C30.5347 10.3851 28.8361 8.68652 24.1711 8.68652Z" fill="#E61945"/>
<path fill-rule="evenodd" clip-rule="evenodd" d="M17.5643 22.3394L17.2904 22.9487H16.6811L17.9797 19.9946H18.5059L19.8045 22.9487H19.1767L18.9121 22.3394H17.5643ZM17.7797 21.804H18.6874L18.232 20.7485L17.7797 21.804ZM27.4174 19.9946H28.0175V22.9487H27.4174V19.9946ZM25.0634 22.4132H26.7097V22.9487H24.4725V19.9946H26.645V20.5392H25.0634V21.1393H26.1558V21.6839H25.0634V22.4132ZM23.3617 19.9946H23.9894L22.9616 22.9579H22.4539L21.78 21.0131L21.1061 22.9579H20.6138L19.5767 19.9946H20.2229L20.8784 22.0317L21.5431 19.9946H22.0354L22.7093 22.0317L23.3617 19.9946ZM15.7733 19.9946H16.3734V21.6686C16.3734 22.5148 15.9087 23.0041 15.0902 23.0041C14.2901 23.0041 13.8255 22.5209 13.8255 21.687V19.9976H14.4255V21.6716C14.4255 22.1701 14.6625 22.4348 15.0994 22.4348C15.5364 22.4348 15.7733 22.1701 15.7733 21.6901V19.9946ZM12.3915 19.9946H12.9916V22.9579H12.3915V21.7486H11.0376V22.9579H10.4375V19.9946H11.0376V21.1854H12.3915V19.9946ZM19.2259 16.2312C17.1427 16.2312 15.4625 14.5418 15.4625 12.4678H15.9887C15.9887 14.2495 17.4443 15.6957 19.2259 15.6957C21.0076 15.6957 22.4631 14.2495 22.4631 12.4678H22.9893C22.9893 14.5387 21.3 16.2312 19.2259 16.2312Z" fill="white"/>
</svg>
